<svg xmlns="http://www.w3.org/2000/svg" viewBox="0 0 64 64" width="64" height="64">
  <rect width="64" height="64" rx="14" fill="#F6EFE5"/>
  <path fill="#E8622A" d="M28.22 9.905V48.38L21.011 50.297Q20.849 50.324 20.701 50.364Q20.552 50.405 20.444 50.405Q20.309 50.405 20.215 50.324Q20.12 50.243 20.12 50.135V13.01Q20.12 12.821 20.026 12.726Q19.931 12.632 19.688 12.632H18.311Q18.149 12.632 18.095 12.564Q18.041 12.497 18.041 12.416Q18.041 12.308 18.108 12.268Q18.176 12.227 18.257 12.2L27.248 9.689Q27.545 9.608 27.653 9.595Q27.761 9.581 27.896 9.581Q28.058 9.581 28.139 9.676Q28.22 9.77 28.22 9.905ZM27.734 30.155 27.329 29.75Q29.084 27.536 30.88 26.523Q32.675 25.511 34.997 25.511Q38.021 25.511 40.303 26.915Q42.584 28.319 43.853 30.952Q45.122 33.584 45.122 37.256Q45.122 41.252 43.664 44.249Q42.206 47.246 39.601 48.893Q36.995 50.54 33.647 50.54Q31.055 50.54 29.503 49.662Q27.95 48.785 27.005 47.03L27.599 46.76Q28.193 48.083 29.178 48.785Q30.164 49.487 31.595 49.487Q33.107 49.487 34.295 48.461Q35.483 47.435 36.172 44.91Q36.86 42.386 36.86 37.958Q36.86 34.016 36.293 31.64Q35.726 29.264 34.713 28.184Q33.701 27.104 32.324 27.104Q31.163 27.104 29.962 27.846Q28.76 28.589 27.734 30.155Z"/>
</svg>
